<svg id="visual" viewBox="0 0 450 900" width="450" height="900" xmlns="http://www.w3.org/2000/svg" xmlns:xlink="http://www.w3.org/1999/xlink" version="1.1"><rect x="0" y="0" width="450" height="900" fill="#FFFFFF"></rect><path d="M183 0L188.5 18.8C194 37.7 205 75.3 228.8 112.8C252.7 150.3 289.3 187.7 267.8 225.2C246.3 262.7 166.7 300.3 146.2 337.8C125.7 375.3 164.3 412.7 199.7 450.2C235 487.7 267 525.3 253.5 562.8C240 600.3 181 637.7 188.2 675.2C195.3 712.7 268.7 750.3 307.2 787.8C345.7 825.3 349.3 862.7 351.2 881.3L353 900L0 900L0 881.3C0 862.7 0 825.3 0 787.8C0 750.3 0 712.7 0 675.2C0 637.7 0 600.3 0 562.8C0 525.3 0 487.7 0 450.2C0 412.7 0 375.3 0 337.8C0 300.3 0 262.7 0 225.2C0 187.7 0 150.3 0 112.8C0 75.3 0 37.7 0 18.8L0 0Z" fill="#dda0dd"></path><path d="M182 0L184.3 18.8C186.7 37.7 191.3 75.3 195.2 112.8C199 150.3 202 187.7 193.8 225.2C185.7 262.7 166.3 300.3 182.5 337.8C198.7 375.3 250.3 412.7 261.3 450.2C272.3 487.7 242.7 525.3 203.2 562.8C163.7 600.3 114.3 637.7 120.8 675.2C127.3 712.7 189.7 750.3 200.3 787.8C211 825.3 170 862.7 149.5 881.3L129 900L0 900L0 881.3C0 862.7 0 825.3 0 787.8C0 750.3 0 712.7 0 675.2C0 637.7 0 600.3 0 562.8C0 525.3 0 487.7 0 450.2C0 412.7 0 375.3 0 337.8C0 300.3 0 262.7 0 225.2C0 187.7 0 150.3 0 112.8C0 75.3 0 37.7 0 18.8L0 0Z" fill="#b06cbc"></path><path d="M61 0L70.3 18.8C79.7 37.7 98.3 75.3 105.3 112.8C112.3 150.3 107.7 187.7 103.8 225.2C100 262.7 97 300.3 88.7 337.8C80.3 375.3 66.7 412.7 79.2 450.2C91.7 487.7 130.3 525.3 135.2 562.8C140 600.3 111 637.7 108.3 675.2C105.7 712.7 129.3 750.3 153.2 787.8C177 825.3 201 862.7 213 881.3L225 900L0 900L0 881.3C0 862.7 0 825.3 0 787.8C0 750.3 0 712.7 0 675.2C0 637.7 0 600.3 0 562.8C0 525.3 0 487.7 0 450.2C0 412.7 0 375.3 0 337.8C0 300.3 0 262.7 0 225.2C0 187.7 0 150.3 0 112.8C0 75.3 0 37.7 0 18.8L0 0Z" fill="#803a9e"></path><path d="M107 0L103.5 18.8C100 37.7 93 75.3 87 112.8C81 150.3 76 187.7 80.8 225.2C85.7 262.7 100.3 300.3 99.8 337.8C99.3 375.3 83.7 412.7 72.5 450.2C61.3 487.7 54.7 525.3 50.5 562.8C46.3 600.3 44.7 637.7 48.7 675.2C52.7 712.7 62.3 750.3 75.7 787.8C89 825.3 106 862.7 114.5 881.3L123 900L0 900L0 881.3C0 862.7 0 825.3 0 787.8C0 750.3 0 712.7 0 675.2C0 637.7 0 600.3 0 562.8C0 525.3 0 487.7 0 450.2C0 412.7 0 375.3 0 337.8C0 300.3 0 262.7 0 225.2C0 187.7 0 150.3 0 112.8C0 75.3 0 37.7 0 18.8L0 0Z" fill="#4b0082"></path></svg>